<svg xmlns="http://www.w3.org/2000/svg" viewBox="0 0 512 512" width="512" height="512">
    <style>
      .path {
        fill: #ea580c;
        stroke-width: 0px;
      }
      @media (prefers-color-scheme: dark) {
        .path {
          fill: white;
        }
      }
    </style>
  </defs><path class="cls-1" d="M56.34,319.22v-9.71h368.6v9.71H56.34ZM87.06,221.95v-9.75h337.88v9.75H87.06ZM87.06,299.8v-9.75h368.6v9.75H87.06ZM87.06,397.07v-9.75h61.44v9.75h-61.44ZM87.06,416.54v-9.71h61.44v9.71h-61.44ZM87.06,436v-9.75h61.44v9.75h-61.44ZM117.78,202.45v-9.71h337.88v9.71H117.78ZM117.78,338.73v-9.75h61.44v9.75h-61.44ZM117.78,358.15v-9.71h61.44v9.71h-61.44ZM117.78,377.61v-9.71h61.44v9.71h-61.44ZM148.5,241.37v-9.71h61.41v9.71h-61.41ZM148.5,260.88v-9.75h61.41v9.75h-61.41ZM148.5,280.3v-9.71h61.41v9.71h-61.41ZM179.22,144.1v-9.75h61.41v9.75h-61.41ZM179.22,163.56v-9.71h61.41v9.71h-61.41ZM179.22,183.02v-9.75h61.41v9.75h-61.41ZM209.9,85.71v-9.71h61.44v9.71h-61.44ZM209.9,105.17v-9.75h61.44v9.75h-61.44ZM209.9,124.64v-9.71h61.44v9.71h-61.44ZM240.62,397.07v-9.75h61.44v9.75h-61.44ZM240.62,416.54v-9.71h61.44v9.71h-61.44ZM240.62,436v-9.75h61.44v9.75h-61.44ZM271.34,338.73v-9.75h61.44v9.75h-61.44ZM271.34,358.15v-9.71h61.44v9.71h-61.44ZM271.34,377.61v-9.71h61.44v9.71h-61.44ZM302.06,241.37v-9.71h61.44v9.71h-61.44ZM302.06,260.88v-9.75h61.44v9.75h-61.44ZM302.06,280.3v-9.71h61.44v9.71h-61.44ZM332.78,144.1v-9.75h61.44v9.75h-61.44ZM332.78,163.56v-9.71h61.44v9.71h-61.44ZM332.78,183.02v-9.75h61.44v9.75h-61.44ZM363.5,85.71v-9.71h61.44v9.71h-61.44ZM363.5,105.17v-9.75h61.44v9.75h-61.44ZM363.5,124.64v-9.71h61.44v9.71h-61.44Z"></path></svg>